<?xml version="1.0" encoding="UTF-8"?>
<svg id="Capa_3" data-name="Capa 3" xmlns="http://www.w3.org/2000/svg" xmlns:xlink="http://www.w3.org/1999/xlink" viewBox="0 0 529.99 529.99">
  <defs>
    <style>
      .cls-1 {
        fill: none;
      }

      .cls-2 {
        clip-path: url(#clippath);
      }

      .cls-3 {
        clip-path: url(#clippath-1);
      }

      .cls-4 {
        fill: #2e3e47;
        stroke: #4c606a;
        stroke-miterlimit: 10;
      }
    </style>
    <clipPath id="clippath">
      <circle class="cls-1" cx="265" cy="265" r="265"/>
    </clipPath>
    <clipPath id="clippath-1">
      <path class="cls-1" d="m214.27,4.85c16.42-3.18,33.37-4.85,50.72-4.85,146.35,0,265,118.64,265,265s-118.64,265-265,265S0,411.35,0,265C0,135.99,92.18,28.51,214.27,4.85"/>
    </clipPath>
  </defs>
  <g class="cls-2">
    <g class="cls-3">
      <path class="cls-4" d="m328.39,382.53c-.46,1.6-.69,2.28-.69,2.28l.69.23s0-.23,0,1.37-.46,2.06.23,2.28,1.83-.46,1.83-.46l1.37,1.6s.46,1.83-.23,2.06c-.69.23-2.06,0-2.06,0l-1.83.46s-.69-.46-1.6-.46-1.83,2.28-1.83,2.28c0,0-1.37.91-1.6,1.37s-.91,3.2-1.14,3.2-2.74,1.83-2.28,2.97.69,1.83.69,1.83l-.23,1.37s1.14.23.69.69-1.83,1.94-1.83,1.94c0,0,.69.8,0,.8s-.91-.23-1.37-.23-1.83,2.06-1.83,2.06c0,0-1.6-.69-1.6-1.14v-2.97s-.69-1.37-1.14-2.06-1.6-4.11-1.6-4.11l-2.28-1.37s-.69,2.97-2.06,3.43-3.43,1.37-3.43,1.37c0,0-.23,2.74,0,2.74s-2.51,1.83-2.51,3.2.46,2.28.46,2.28l-1.37,1.6s1.83,1.14,1.37,1.6-1.14,2.97-.91,3.43,1.14.91.69,1.37-2.06,2.51-2.06,2.51l1.14,1.14-.91,2.28s1.14.91.46,1.6-.91,1.37-.91,1.37c0,0-.91.23-1.37,1.83-.46,1.6.46,2.97.46,4.34s.91,3.2.91,3.2l.91,1.37-1.37,3.66.46,2.28-1.83.23-1.37,1.37s1.6,2.28,1.37,2.51-.46,1.37-.23,1.6,0,1.14-.46,1.37-1.14,1.14-1.14,1.14l-.91,1.83.69.69-.23,3.2,1.6,1.37-.46,1.14v3.66l-.46,2.06.2,2.86-1.12.57s.23,2.06.46,2.06-.23,1.14-.23,1.14l2.28.46,1.83,4.8,3.2,2.28s1.14.46.46.91-1.14.91-1.14.91l-.23,3.2,1.83.91,1.37-.91,2.51,1.83-.46,1.37s.69-.46.69,0-.23,1.37-.23,1.37l1.37,2.06-1.83,3.88.46.46.69,4.57.69.23-.46,1.6s1.37,0,1.14.46-1.14,2.51-1.14,2.97v2.28s1.37.91,1.6.91,2.51-.23,2.51.23.91,1.37.91,1.37l1.37.46s-.23,1.19.69,1.51,2.97.32,2.97.32l.69,1.14,1.37-.69,2.06,1.37s.46-.46.46-.69,7.54-.69,7.54-.46,1.37,1.14,1.37,1.14l.91,2.74,2.97.91s.69,2.28,1.37,2.28c0,0,0,0,0,0,.03.13-35.65,12.2-69,15.99-49.57,5.63-90.27-7.47-90.12-9.02.03-.31,1.8-1.38,1.73-1.48,0,0-.01,0-.02,0-.23,0-.85-.54-.85-.54l-.51-.49-.36-1.77-1.48.06-.46.69s-.46,0-.69-.23,1.14-1.37,1.14-1.37l-.23-.69-.23-.91v-.91l-.23-.91.46-1.37s2.51-.69,2.28-.91.46-.91.46-.91c0,0,.46-2.06,0-2.51s0-1.14-.23-1.6-.69-1.15-1.26-1.26c-.57-.11-1,0-1,0,0,0,.21-1.02-.25-1.02h-2.96s-1.58.46-1.48,0c.1-.46-.36-1.6-.36-1.6,0,0,1.96.46,2.01,0,.05-.46.28-2.06.28-2.06l1.84-1.75s1.13-2.37.9-2.59-.23-1.6-.23-1.6c0,0,1.6-.23,1.37-.69s0-.91,0-.91c0,0,.91-.91.46-1.37-.46-.46-.46-2.06-.46-2.06,0,0-1.81.46-2.05,0s-1.15-.69-1.61-.69-.69-.69-.69-.69c0,0,0-.23-.23-.69s.23-7.54,0-7.77-.23-1.83-.23-1.83c0,0-1.83-2.78-1.37-3.44s1.37-1.35.69-1.58-.76-1.8-.76-1.8c0,0,.38-.81,0-1.22-.38-.41-2.44-1.78-2.21-2.01s-.91-2.28-.46-2.51,1.14-.46,1.14-.69.23-6.62,0-7.08-.23-2.97.23-2.74.23-2.51.23-2.51c0,0-.9-1.83-1.71-2.17-.8-.34-.12-1.48-.35-1.71s-.23-2.06-.69-2.06-.23-.87,0-1.01c.23-.13.23-1.05.23-1.05,0,0-1.83-1.14-1.37-1.6.46-.46.46-1.37.46-1.37,0,0-.69-.46-.91-.69s-.46-2.91,0-2.94-2.06-.49-1.83-.72.2-1.38-.01-2.06c-.21-.68-.44-4.33-.44-4.33,0,0,.23-2.51.46-2.97s.23-1.37,0-1.6-1.14-2.06-1.6-1.83-1.14-2.06-1.14-2.06v-3.45c0-.2,1.14-.43.69-1.57s-.69-2.77-.69-2.77c0,0,.69-1.73,0-1.65-.69.08-.46-.84-.46-.84l-.69-1.37s-.91-.69-.69-1.6c.23-.91.23-1.83.23-1.83,0,0-.46-.69-.91-.91s-.46-1.6-.46-1.6l-.69-1.83s1.14-.46.91-.69-.91-2.28-.46-2.28,1.37-1.6.91-2.06-.23-2.06-.23-2.06l1.14-.69-.23-3.43s-1.14-.91-1.14-1.37-.23-1.37-.23-1.37c0,0-.46-3.88-.23-5.03s2.51-2.74,2.51-2.74l-.69-.69s.23-1.83,0-2.28-.23-2.74-.23-2.97-.46-1.14-.91-1.83c-.46-.69-1.14-3.13-1.14-3.28v-1.3s-1.59.67-1.48,0c.11-.67.34-1.55,0-1.91-.34-.36,0-1.48,0-1.48,0,0,.8-3,.34-3.46s-.99-2.04-.49-2.28c.49-.24-.2-.69-.2-.69,0,0-1.13-1.37-1.13-2.06s-.69-2.51-.69-2.51c0,0,.69-.46.46-2.06-.23-1.6-1.14-1.6-1.14-1.6v-7.15s.23-.85.69-.85-.69-3.06-.69-3.06c0,0-.69-.82-.69-1.05s.69-2.28.46-2.51.91-.23.91-.91-.69-4.08-1.37-4.9c-.69-.81-.46-3.1-.46-3.1,0,0,.84-4.54-.04-5.24-.88-.7,0-2.43,0-2.43l.49-2.61.46-1.37s-.33-1.83,1.09-2.28.28-3.2.28-3.2c0,0-.69-1.37,0-1.83s.69-1.6.46-2.06-1.14-1.83-.69-2.51,1.37-3.66.91-5.48c-.46-1.83,1.37-3.43.91-3.88s-.91-1.6-.91-1.6c0,0,1.14-1.6,1.14-2.06s-.46-2.97.23-3.43,0-1.14,0-1.14c0,0,.69-2.74,1.14-3.2s.46-4.11.46-4.11c0,0,1.14-.46.91-1.6-.23-1.14.46-3.2.46-3.2,0,0,1.6-2.28,1.83-2.06s.23-1.83.23-1.83c0,0,.91-.46.91-.91s1.18-.69,1.28,0c.09.69.09,2.74.32,2.74s.69,2.06.46,2.51.69,2.97.69,2.97c0,0,7.08.23,7.31,0s4.57-1.14,5.03-2.06c.46-.91,1.83-2.74,1.14-2.97s-.69-1.14-.69-1.14l.91-1.14s1.14,1.14,1.37.91,1.37-1.37,1.14-1.6.03-2.67.03-2.67c0,0-.72-.99-.49-1.44s.49-1.48.49-1.48c0,0-.43-1.93,0-1.93.43,0,1.11,1.59,1.57.91s.86-.91.86-.91c0,0,.51-2.98.96-2.98s.86-.57.86-.57c0,0-.51,2.73,0,2.68.51-.05,1.65.86,1.65.86,0,0,3.43.46,3.2,0s3.66-2.97,3.43-4.8c-.23-1.83.69-2.51.69-2.51l.41-3.2s-.41.46-.64-.69c-.23-1.14-.69-1.37-1.14-1.37s1.37-2.74,1.37-2.74c0,0,.46-1.6-.23-1.83-.69-.23-1.14-1.6-.91-2.06.23-.46,0-.91-.69-1.14s-.23-3.66-.23-3.66c0,0,0-1.6-.69-1.6s-1.6,1.14-2.05,0c-.46-1.14-.46-2.51-.46-2.51,0,0,1.37-1.37,2.06-.91s1.14.23,1.14.46,2.06-1.14,1.14-2.51c-.91-1.37,1.33-1.14,1.33-1.14,0,0,.04,1.83.5,1.83s3.2.23,2.74-.69c-.46-.91-1.14-1.83-1.37-1.83s-.69-.91-.23-1.37,1.24-2.35,1.65-2.54c.41-.2,1.55-.2,1.32.49-.23.69,0,3.2.69,2.74s3.66.23,5.03-2.97c1.37-3.2,1.83-6.17,1.6-8.22s-.23-4.57-.91-6.4c-.69-1.83-.91-2.28-2.06-2.28s-2.28-1.6-2.28-2.74.46-1.6-.46-2.97-2.56-.69-2.65-2.28c-.09-1.6-.55-2.97.37-3.66.91-.69,1.6-.23,1.6-2.28s-.69-1.83-.46-2.74,1.6.23,1.37-1.6-.46-3.43-.46-3.43c0,0,.91-2.51,1.37-2.97s.23-1.83,1.6-2.97,1.83-1.14,1.14-2.74c-.69-1.6-.23-.91-1.83-2.28s-2.97-2.06-2.97-4.34.91-3.43,0-4.57c-.91-1.14-.69-4.11-.69-4.11,0,0,.23-.91-.23-1.83-.46-.91,2.27.91,2.39,0s.58-1.14.35-3.66.23-3.66.46-3.66,0-3.88,0-3.88h-2.02l-.26-2.28s-1.58.91-1.48,0c.11-.91,1.02-2.74,1.02-2.74l-.23-2.97s-1.37-.46-.69-1.14,1.6-1.37,1.6-1.37c0,0-5.71-6.17-7.54-7.77-1.83-1.6-4.11-4.11-5.94-4.57-1.83-.46-5.53-.46-5.51,0,.02.46-.66,2.06-.89,1.6s-.33-1.94-.33-1.94c0,0,1.01-.8,1.24-1.03s1.37,0,1.37-.69-.23-3.66-.69-3.88-2.65-2.75-2.93-4.23c-.27-1.48.41-1.02.41-1.02l.23-1.83s-1.6-1.37-1.6-2.06-.46-2.06.46-2.51,2.51-.69,2.28-1.14,2.51-3.66,2.51-3.66l-.91-1.6s-2.61.46-2.9,0c-.3-.46-.07-1.83-.07-1.83,0,0,.46-2.06.69-2.28s.23-1.37.23-1.37l-.23-.91.23-1.14h-1.89l-.17-1.37s-.91-.46-.46-.91c.46-.46.46-2.28.69-2.28s.91-1.14.91-1.14v-2.06s-1.37-.46-1.83-.69-.23,1.14-.91,1.14h-1.37s.69-.23.69-.69.23-2.51.91-2.74.69-2.74.69-2.74h-.54l.08-2.97h-.6s-.54-1.14-.08-1.6,2.97-9.14,4.34-9.14,2.06.69,2.06.69c0,0,3.66-2.06,3.66-2.97s-.23-1.83.23-2.06,2.22,0,2.22,0c0,0,5.09-1.83,4.86-2.97-.23-1.14.46-4.57.46-4.57,0,0,.46-.69.46-1.14s5.25-6.17,5.25-6.17c0,0,0-2.06.46-2.06h1.54l1.89-2.51s0-4.11.46-4.57c.46-.46,1.37-1.83,1.37-1.83,0,0,.23-1.14,0-1.6-.23-.46-1.6-4.11-2.06-4.11s-1.6-1.37-1.37-1.83-.69-.91-.69-.91c0,0-.91-.69,0-1.14s2.66,0,2.66,0c0,0-.37-1.37.09-1.37s3.2-.69,3.66-2.28,1.6-1.14,1.14-2.97-.46-2.28-.46-2.28c0,0-2.06-.69-1.83-.91s1.6-.46,1.6-.46l.79-1.72-.79-.33s-.46-.91.23-1.37,2.06-.91,2.06-.91l1.83-.46c1.83-.46,3.43-2.51,3.43-4.57s1.14-3.43,1.14-3.43c0,0,.23-1.81,0-2.39-.23-.58,1.6-1.27,1.6-1.27,0,0,0-1.14.46-1.6.46-.46,1.83-.69,1.83-1.14V1.51s71.28-5.96,71.5-5.28c.23.69,111.48,29.47,111.48,33.12s1.14,8.68,1.14,8.68l-1.14.69.46,1.37s-1.6,1.37-1.6,1.83.46,1.14.46,1.14c0,0-.46.91-.46,1.14v1.37s-4.34,4.11-3.66,5.48.46,2.28.46,2.28l-.23.69.69.91s-.69.69-.46,1.14.23,2.06.23,2.06c0,0-1.37.91-.46,1.14s4.57,1.83,4.34,2.28,0,2.74.23,2.74-1.37.69-1.6.46-.69.91-.46,2.28-2.06,6.85-2.06,6.85c0,0-1.83.46-1.83.91s-.23,2.28-.23,2.28l-1.14.69s.91,1.37.69,1.6-2.28,1.14-2.28,1.6v1.6s-.46.23-.46,1.14.69,3.43,1.37,3.2c.69-.23.23,3.66.23,3.66,0,0-1.83,1.14-.69,2.28,1.14,1.14-1.14,1.83-1.14,1.83l-.46,2.51s-1.37,1.37-1.6.91,0,1.6.23,1.37-.23,1.14-.23,1.14c0,0-.23,1.14-.46,1.14s-.46,1.6-.46,1.6c0,0,.23,1.14.23,1.37s-.69,3.43-.69,3.43c0,0,1.37,1.6,1.14,2.74s-.23,4.34-.23,4.34c0,0-5.25-.23-5.71-.46s-1.6.69-1.6.69c0,0-1.14-.69-1.6-.23l-.91.91-1.6-.23-.69,2.28s-1.6.46-1.6.91-2.06,2.74-2.06,2.74c0,0-1.83,1.37-3.43,1.37s-.23,1.83-.23,1.83c0,0-1.37,1.83-.69,2.51.69.69.91,1.6.91,1.6,0,0,1.37,1.6.91,2.06s-1.6,3.43-2.28,3.43-3.43.91-4.11,1.37-1.83,1.14-1.6,2.51c.23,1.37.69,1.37.69,1.37,0,0-3.2,1.83-3.2,2.51s.23,1.6.23,1.6l.69.91s-.91,0-.69.23,1.14,1.6,1.14,1.6c0,0-1.83.23-1.83.46s.69,2.28,1.14,1.83-1.14,1.6-.91,1.83.46,1.14,1.37,1.37c.91.23,5.03,1.6,5.03,2.28s1.37,2.74.69,3.2-1.14,1.83-1.14,1.83l-.69,1.37,2.74,1.83s-.91.46-.23,1.14l1.6,1.6s.46,1.6-.23,1.83.46,2.74.46,2.97-.91.46-.91.46c0,0,.46.91,0,1.37s-.69.91-.69.91l1.6,1.37v1.37s1.37,1.14,1.14,1.83.69,2.51.69,2.51c0,0-.23,2.74-.91,3.2s-.46,7.31-.23,7.54.46,1.83,1.14,2.28c.69.46,1.14,0,1.14,0l-.23,2.28s1.6.46,1.6.91.69,1.14.69,1.14c0,0,.69-.69.91-.69s2.06,1.6,1.83,1.83-.23,2.06-.23,2.06l.69.23s.23.91,0,1.37-1.14.91-1.14.91v1.14s-.91.69-.91.91.32,1.83.32,1.83l-1.46,3.2s-1.6,0-1.37.69.46,2.06.46,2.06c0,0,1.6.69,1.83.91s.23,1.14,0,2.06c-.23.91,0,2.97,0,2.97l2.74,1.6-2.51,2.97,1.14.69-.46.91s-.46.91-.23,1.14.69,1.14.69,1.14l-2.28,1.83s-.91,2.74-.46,2.74,1.6-.46,1.6-.46c0,0-.69,1.83-.46,2.51.23.69-3.2,4.8-3.2,5.25s.91,5.03.91,5.25-.91,1.37-.91,1.37l.23.91-1.37.69v.91s0-.91-.91.23-1.14,2.28-1.6,2.06-1.83.69-1.14,1.14c.69.46.23,1.6.23,1.6,0,0,1.37,1.6,2.06.91s.23,1.83.23,1.83v.91s.51,1.14,1.4.91c.89-.23,3.4-1.83,3.4-1.83l4.34.46,2.51,2.51s2.51-.46,2.74-.46,1.6.46,1.6.46c0,0-.46.46-.23.91s.91,1.6.91,1.6c0,0,1.14,1.14,0,1.37s-2.06.91-2.06.91l1.14,2.28-.69.91.23.91s.46-2.06-.69.91l-1.14,2.97-2.74.23-1.37-.91-2.06.69s-.91.23-.69,1.83.91,3.43.91,3.43c0,0,.91,1.6.46,1.83s-.52,1.26-.52,1.26h-1.48l-.29,1.48.23.69-1.14.69s.91.23.69.91c-.23.69-.69,2.06-.69,2.06,0,0-.69.46-.46.91s.23,2.51.23,2.51l1.83,1.37s0,.91-.46.91-2.74-.91-2.74-.91l-2.28,1.14s-.91,3.43-1.6,3.88-5.48-.69-5.48-.69l-3.66,2.28-2.51-.91-2.51.46s-2.51-1.14-2.51-1.6v-.91s-2.28-.23-2.51-.69-.46-2.51-.46-2.51l-3.66-1.6-2.06.23-.69,2.28s1.14,1.14,1.37,1.6,1.37,4.8,1.37,4.8c0,0,1.14,0,1.37.91s1.14,3.43,1.14,3.43c0,0-1.14-.69-1.6.91-.46,1.6-.91,2.97-1.37,3.2s-1.83.23-1.83.23l-5.03,3.88,1.6,2.97s-.23,1.6-.69,1.6-.46,2.06-.46,2.06l-.91.46,1.11,1.6-2.25,1.37v1.83l-1.83,1.14s.23,3.43-.46,3.66-2.06,1.14-2.06,1.14l.23,2.06s-1.37.69-1.37,1.6v3.43l1.37.91-.23.69s-.69.46-1.14.46-1.14,2.74-.91,4.34,1.14,3.2,1.14,3.2c0,0,.46.23-.69,1.14s-1.6.46-1.6.46c0,0-1.14,3.43-.91,4.11s.23,2.28.23,2.28c0,0-.69.46-1.14.23s-.91,1.83-.91,1.83l1.14,1.83s0,4.34-.46,4.34-1.83.69-1.83.69v2.74s-.91,1.14-.91,1.83v2.51s-.91,1.6-.91,2.06-.23,1.6-.23,1.6c0,0-1.6,1.14-1.37,1.6s1.14,2.28,1.14,2.28l.23,1.83s.91,0,1.83.91.91.91.46,2.51"/>
    </g>
  </g>
</svg>